<?xml version="1.0" encoding="utf-8"?>
<!-- Generator: Adobe Illustrator 16.0.0, SVG Export Plug-In . SVG Version: 6.00 Build 0)  -->
<!DOCTYPE svg PUBLIC "-//W3C//DTD SVG 1.1//EN" "http://www.w3.org/Graphics/SVG/1.1/DTD/svg11.dtd">
<svg version="1.1" id="Layer_1" xmlns="http://www.w3.org/2000/svg" xmlns:xlink="http://www.w3.org/1999/xlink" x="0px" y="0px"
	 width="254.845px" height="217.261px" viewBox="5.577 6.137 254.845 217.261" enable-background="new 5.577 6.137 254.845 217.261"
	 xml:space="preserve">
<circle fill="#FFE882" cx="32.317" cy="123.713" r="14.902"/>
<g>
	<path fill="#F28123" d="M28.004,119.985h3.73c0.158,0,0.286-0.129,0.286-0.285c0-0.158-0.128-0.287-0.286-0.287h-3.73
		c-0.157,0-0.285,0.129-0.285,0.287C27.719,119.856,27.847,119.985,28.004,119.985z"/>
	<path fill="#F28123" d="M28.004,128.875h3.73c0.158,0,0.286-0.127,0.286-0.287c0-0.155-0.128-0.284-0.286-0.284h-3.73
		c-0.157,0-0.285,0.129-0.285,0.284C27.719,128.749,27.847,128.875,28.004,128.875z"/>
	<path fill="#F28123" d="M28.004,121.706h8.318c0.158,0,0.287-0.127,0.287-0.287c0-0.155-0.129-0.285-0.287-0.285h-8.318
		c-0.157,0-0.285,0.13-0.285,0.285C27.719,121.579,27.847,121.706,28.004,121.706z"/>
	<path fill="#F28123" d="M28.004,125.147h8.318c0.158,0,0.287-0.127,0.287-0.285s-0.129-0.287-0.287-0.287h-8.318
		c-0.157,0-0.285,0.129-0.285,0.287C27.719,125.021,27.847,125.147,28.004,125.147z"/>
	<path fill="#F28123" d="M28.004,127.157h8.318c0.158,0,0.287-0.129,0.287-0.287s-0.129-0.287-0.287-0.287h-8.318
		c-0.157,0-0.285,0.129-0.285,0.287C27.719,127.028,27.847,127.157,28.004,127.157z"/>
	<path fill="#F28123" d="M28.004,123.426h4.017c0.159,0,0.286-0.129,0.286-0.286c0-0.158-0.127-0.285-0.286-0.285h-4.017
		c-0.157,0-0.285,0.127-0.285,0.285C27.719,123.297,27.847,123.426,28.004,123.426z"/>
	<path fill="#F28123" d="M36.323,122.853h-2.007c-0.159,0-0.288,0.129-0.288,0.287c0,0.155,0.129,0.282,0.288,0.282h2.007
		c0.158,0,0.287-0.127,0.287-0.282C36.61,122.981,36.481,122.853,36.323,122.853z"/>
	<path fill="#F28123" d="M32.965,122.937c-0.056,0.054-0.084,0.125-0.084,0.203c0,0.073,0.031,0.147,0.084,0.205
		c0.053,0.053,0.124,0.081,0.203,0.081c0.077,0,0.148-0.03,0.203-0.081c0.053-0.058,0.082-0.128,0.082-0.205
		c0-0.078-0.027-0.147-0.082-0.203C33.262,122.829,33.074,122.827,32.965,122.937z"/>
	<path fill="#F28123" d="M35.461,115.683H33.74v-0.285c0-0.158-0.128-0.287-0.287-0.287h-2.58c-0.158,0-0.287,0.129-0.287,0.287
		v0.285h-1.721h-3.729v16.635h14.053v-16.635H35.461z M33.168,115.683v0.287v0.572H31.16v-0.572v-0.287H33.168z M30.586,116.256
		v0.574v0.287h0.287h2.58h0.287v-0.287v-0.574h1.434v0.287v0.859h-6.021v-0.859v-0.287H30.586z M28.578,117.69v0.287h0.287h6.596
		h0.286v-0.287v-0.574h2.008v13.767H26.572v-13.765h2.008L28.578,117.69L28.578,117.69z M38.617,131.745H25.712v-15.488h2.869v0.287
		h-2.582v14.914h12.332v-14.914h-2.582v-0.287h2.868V131.745z"/>
</g>
<circle fill="#FFE882" cx="93.032" cy="124.023" r="14.978"/>
<g>
	<g>
		<path fill="#F28123" d="M91.835,128.833c0-0.375-0.304-0.678-0.679-0.678h-5.122c-0.373,0-0.676,0.305-0.676,0.678
			c0,0.117,0.029,0.229,0.083,0.326h-0.974v1.404h8.259v-1.404h-0.974C91.804,129.063,91.835,128.952,91.835,128.833z"/>
		<path fill="#F28123" d="M90.963,117.237l4.327,2.748c0.338,0.172,0.755,0.063,0.961-0.264l0.209-0.324
			c0.218-0.348,0.117-0.809-0.229-1.021l-4.208-2.674c-0.346-0.218-0.803-0.117-1.022,0.229l-0.209,0.325
			C90.586,116.581,90.664,117.009,90.963,117.237z"/>
		<path fill="#F28123" d="M102.656,127.735l-0.002-0.064l-0.005-0.063c-0.004-0.043-0.009-0.078-0.014-0.117
			c-0.021-0.152-0.057-0.283-0.099-0.404c-0.088-0.233-0.212-0.412-0.366-0.549c-0.038-0.033-0.079-0.063-0.119-0.092l-0.12-0.092
			c-0.08-0.061-0.161-0.117-0.244-0.176c-0.081-0.063-0.163-0.117-0.245-0.178c-0.083-0.059-0.165-0.113-0.248-0.174
			c-0.165-0.115-0.332-0.226-0.498-0.336l-0.251-0.164l-0.254-0.164c-0.168-0.105-0.338-0.213-0.509-0.316
			c-0.17-0.105-0.342-0.211-0.514-0.313l-0.516-0.311l-0.519-0.307l-0.522-0.299l-0.527-0.296l-0.526-0.291l-0.531-0.286
			c-0.178-0.096-0.355-0.188-0.533-0.279c-0.179-0.096-0.357-0.188-0.536-0.277l-0.163,0.254l-0.818-0.385l0.916-1.441l-4.329-2.748
			l-2.251,3.547l4.327,2.746l0.915-1.441l0.697,0.576l-0.161,0.256c0.158,0.121,0.319,0.244,0.479,0.365
			c0.161,0.123,0.322,0.244,0.482,0.361l0.485,0.359l0.488,0.353l0.489,0.351l0.494,0.347l0.496,0.343l0.499,0.338
			c0.166,0.11,0.334,0.219,0.502,0.328c0.169,0.11,0.337,0.217,0.508,0.325l0.255,0.157l0.256,0.158
			c0.171,0.104,0.343,0.207,0.517,0.31c0.085,0.053,0.172,0.103,0.26,0.149c0.086,0.049,0.173,0.101,0.262,0.146
			c0.087,0.051,0.175,0.1,0.264,0.146l0.133,0.07c0.044,0.021,0.087,0.049,0.135,0.066c0.185,0.082,0.399,0.117,0.651,0.099
			c0.125-0.015,0.258-0.036,0.409-0.081c0.037-0.016,0.072-0.021,0.112-0.039l0.059-0.021l0.061-0.022
			c0.081-0.035,0.167-0.078,0.26-0.133C102.659,127.918,102.66,127.825,102.656,127.735z"/>
		<path fill="#F28123" d="M86.975,123.653l4.207,2.674c0.346,0.219,0.805,0.115,1.023-0.229l0.207-0.328
			c0.207-0.326,0.128-0.75-0.17-0.982l-4.327-2.746c-0.337-0.172-0.754-0.063-0.96,0.265l-0.209,0.325
			C86.525,122.976,86.629,123.433,86.975,123.653z"/>
	</g>
</g>
<path fill="#F7F052" d="M99.617,218.211c-0.176,2.854-2.655,5.187-5.512,5.187H30.76c-2.856,0-5.307-2.336-5.448-5.188
	l-3.644-74.088c-0.141-2.854,2.081-5.187,4.938-5.187h72.691c2.854,0,5.049,2.332,4.873,5.183L99.617,218.211z"/>
<path fill="#96ADC8" d="M63.303,203.913c-55.367,0-55.367-47.158-55.367-62.654c0-1.862,1.511-3.375,3.374-3.375
	c1.864,0,3.375,1.513,3.375,3.375c0,7.689,0,21.994,6.179,34.146c7.344,14.438,21.623,21.765,42.439,21.765
	c14.879,0,26.328-3.92,34.031-11.65c12.793-12.838,12.721-33.307,12.688-43.145l-0.006-1.396c0-1.862,1.514-3.375,3.375-3.375
	c1.863,0,3.375,1.513,3.375,3.375l0.006,1.373c0.035,10.746,0.115,33.104-14.654,47.933C93.1,199.327,80.041,203.913,63.303,203.913
	z"/>
<path fill="#454F5B" d="M20.86,140.435c0,0.918-0.906,1.662-2.023,1.662H7.6c-1.117,0-2.023-0.744-2.023-1.662v-5.959
	c0-0.918,0.906-1.662,2.023-1.662h11.236c1.117,0,2.023,0.744,2.023,1.662L20.86,140.435L20.86,140.435z"/>
<path fill="#454F5B" d="M118.67,140.616c0,0.918-0.906,1.662-2.021,1.662h-11.237c-1.116,0-2.021-0.744-2.021-1.662v-5.959
	c0-0.92,0.904-1.662,2.021-1.662h11.236c1.115,0,2.021,0.742,2.021,1.662L118.67,140.616L118.67,140.616z"/>
<circle fill="#FFE882" cx="62.651" cy="124.845" r="15.293"/>
<g>
	<g>
		<path fill="#F28123" d="M62.649,128.729c1.066,0,1.981-0.381,2.74-1.143c0.761-0.76,1.141-1.672,1.141-2.738v-6.209
			c0-1.064-0.38-1.98-1.141-2.74c-0.758-0.758-1.671-1.145-2.74-1.145c-1.068,0-1.982,0.385-2.741,1.145
			c-0.759,0.76-1.139,1.674-1.139,2.74v6.209c0,1.064,0.38,1.979,1.139,2.738C60.669,128.349,61.581,128.729,62.649,128.729z"/>
		<path fill="#F28123" d="M69.403,122.752c-0.153-0.153-0.334-0.229-0.545-0.229c-0.21,0-0.392,0.076-0.544,0.229
			c-0.153,0.151-0.23,0.336-0.23,0.543v1.556c0,1.494-0.531,2.771-1.594,3.836c-1.063,1.063-2.343,1.595-3.837,1.595
			c-1.495,0-2.774-0.531-3.836-1.595c-1.063-1.063-1.594-2.345-1.594-3.836v-1.556c0-0.209-0.078-0.392-0.231-0.543
			c-0.152-0.153-0.336-0.229-0.546-0.229c-0.21,0-0.391,0.076-0.544,0.229c-0.153,0.151-0.231,0.336-0.231,0.543v1.556
			c0,1.784,0.598,3.34,1.789,4.662c1.193,1.321,2.666,2.075,4.42,2.271v1.604h-3.103c-0.212,0-0.393,0.074-0.546,0.229
			c-0.153,0.15-0.23,0.336-0.23,0.547c0,0.209,0.077,0.392,0.23,0.543c0.154,0.15,0.336,0.229,0.546,0.229h7.761
			c0.208,0,0.39-0.078,0.542-0.229c0.155-0.151,0.231-0.338,0.231-0.543c0-0.213-0.076-0.396-0.231-0.547
			c-0.153-0.154-0.335-0.229-0.542-0.229h-3.111v-1.604c1.755-0.193,3.227-0.949,4.421-2.271c1.192-1.322,1.788-2.875,1.788-4.662
			v-1.556C69.634,123.086,69.557,122.905,69.403,122.752z"/>
	</g>
</g>
<path fill="#96ADC8" d="M108.404,142.024c0,1.447-1.174,2.621-2.621,2.621H19.472c-1.447,0-2.622-1.174-2.622-2.621v-8.775
	c0-1.447,1.175-2.621,2.622-2.621h86.311c1.447,0,2.621,1.174,2.621,2.621V142.024z"/>
<circle fill="#FFE882" cx="134.842" cy="47.756" r="14.489"/>
<g>
	<path fill="#F28123" d="M144.715,41.164c-0.033-0.088-0.113-0.149-0.207-0.162c-0.096-0.012-0.186,0.029-0.242,0.107
		c-0.328,0.459-0.754,0.609-1.252,0.787c-0.396,0.143-0.813,0.291-1.261,0.611c-0.633,0.455-0.922,1.072-0.776,1.66l-0.017,0.02
		c-0.267-0.383-0.553-0.738-0.854-1.055c-1.418-1.479-3.401-2.371-5.44-2.443c-0.088-0.002-0.181-0.004-0.271-0.004
		c-2.274,0-4.454,1.018-5.978,2.793c-1.515,1.764-2.187,4.063-1.843,6.305c0.026,0.186,0.063,0.375,0.108,0.563
		c0.559,2.463,1.99,4.34,3.922,5.143c0.479,0.199,0.957,0.301,1.43,0.301c1.172,0,2.192-0.627,2.805-1.719
		c0.233-0.416,0.386-0.846,0.447-1.279c0.036-0.256,0.012-0.51-0.015-0.756c-0.022-0.254-0.051-0.494-0.012-0.738
		c0.088-0.553,0.477-0.885,1.034-0.885c0.16,0,0.324,0.027,0.485,0.08c-0.188,0.351-0.364,0.683-0.516,0.994
		c-0.32,0.652-0.544,1.197-0.656,1.611c-0.071,0.256-0.263,0.934,0.201,1.256c0.146,0.102,0.332,0.137,0.524,0.102
		c0.174-0.03,0.705-0.131,2.215-1.848c0.402-0.461,0.838-0.996,1.295-1.586c1.171-0.395,2.082-1.377,2.321-2.502
		c0.063-0.281,0.086-0.586,0.076-0.896c0.438-0.678,0.818-1.31,1.209-1.986c0.006-0.016,0.017-0.027,0.021-0.043
		c0.562-0.154,1.044-0.59,1.326-1.201C145.215,43.498,145.184,42.353,144.715,41.164z M138.391,45.386
		c-0.203,0.321-0.554,0.517-0.937,0.517c-0.205,0-0.41-0.06-0.584-0.171c-0.25-0.155-0.425-0.399-0.49-0.688
		c-0.063-0.287-0.017-0.584,0.144-0.832c0.205-0.321,0.558-0.516,0.937-0.516c0.207,0,0.41,0.059,0.588,0.17
		c0.25,0.158,0.423,0.402,0.486,0.688C138.596,44.843,138.549,45.136,138.391,45.386z M139.818,47.384
		c0.558-0.82,1.146-1.638,1.707-2.363c0.093,0.082,0.19,0.162,0.302,0.238c0.185,0.125,0.372,0.225,0.565,0.291
		c-0.474,0.809-0.979,1.608-1.595,2.515c-1.012,1.49-2.063,2.873-2.963,3.896c-0.498,0.57-0.938,1.012-1.276,1.285
		c0.129-0.42,0.379-0.992,0.728-1.668C137.911,50.362,138.809,48.875,139.818,47.384z M130.036,47.375
		c-0.207,0-0.408-0.057-0.586-0.168c-0.248-0.157-0.422-0.401-0.486-0.688c-0.066-0.287-0.016-0.584,0.141-0.832
		c0.205-0.323,0.555-0.515,0.936-0.515c0.207,0,0.41,0.058,0.586,0.169c0.518,0.325,0.672,1.006,0.348,1.521
		C130.766,47.185,130.417,47.375,130.036,47.375z M128.882,49.803c0.205-0.324,0.553-0.516,0.936-0.516
		c0.203,0,0.408,0.059,0.586,0.17c0.25,0.158,0.422,0.401,0.488,0.688c0.064,0.289,0.018,0.584-0.143,0.834
		c-0.203,0.32-0.553,0.514-0.936,0.514c-0.207,0-0.408-0.059-0.586-0.17c-0.248-0.156-0.424-0.4-0.486-0.688
		C128.673,50.348,128.724,50.051,128.882,49.803z M132.411,43.259c0.203-0.324,0.551-0.519,0.934-0.519
		c0.208,0,0.408,0.062,0.588,0.172c0.514,0.322,0.668,1.004,0.346,1.521c-0.205,0.323-0.557,0.515-0.937,0.515
		c-0.207,0-0.41-0.058-0.588-0.17c-0.248-0.156-0.422-0.4-0.488-0.689C132.202,43.804,132.255,43.506,132.411,43.259z"/>
</g>
<circle fill="#FFE882" cx="101.388" cy="82.313" r="14.758"/>
<g id="XMLID_2_">
	<g>
		<g>
			<path fill="#F28123" d="M106.609,83.989c-0.731,1.008-1.918,1.664-3.255,1.664h-1.878c-0.649,0-1.199-0.414-1.408-0.988
				c-0.259-0.076-0.512-0.178-0.759-0.301c-0.523-0.258-0.999-0.611-1.415-1.049c-2.712,0.596-4.742,3.014-4.742,5.903v0.377
				c0,0.519,0.42,0.94,0.941,0.94h14.588c0.52,0,0.94-0.42,0.94-0.94v-0.377C109.621,86.985,108.412,85.036,106.609,83.989z"/>
			<path fill="#F28123" d="M96.895,81.378c0.404,0,0.754-0.224,0.938-0.554c0.004,0.014,0.01,0.025,0.016,0.039
				c0.001,0.004,0.003,0.008,0.004,0.014c0.429,1.124,1.26,2.068,2.357,2.48c0.264-0.423,0.733-0.703,1.268-0.703h1.877
				c0.187,0,0.362-0.053,0.516-0.139c0.256-0.146,0.488-0.509,0.606-0.699c0.19-0.311,0.339-0.638,0.468-0.992
				c0.075,0.133,0.175,0.25,0.295,0.34v0.462c0,1.04-0.844,1.884-1.883,1.884h-1.877c-0.355,0-0.644,0.287-0.644,0.645
				c0,0.354,0.287,0.642,0.644,0.642h1.877c1.748,0,3.168-1.42,3.168-3.169v-0.464c0.261-0.195,0.429-0.506,0.429-0.854v-1.938
				v-0.741c0-0.358-0.176-0.675-0.444-0.868c-0.209-2.645-2.425-4.729-5.121-4.729c-2.694,0-4.909,2.084-5.118,4.729
				c-0.271,0.193-0.445,0.51-0.445,0.868v2.681C95.823,80.899,96.304,81.378,96.895,81.378z M101.388,73.317
				c1.995,0,3.64,1.524,3.833,3.471c-0.128,0.098-0.232,0.226-0.302,0.371c-0.606-1.582-1.958-2.682-3.532-2.682
				c-1.608,0-2.938,1.141-3.528,2.676c-0.003,0.002-0.003,0.006-0.004,0.008c-0.07-0.146-0.174-0.272-0.3-0.373
				C97.747,74.842,99.392,73.317,101.388,73.317z"/>
		</g>
	</g>
</g>
<circle fill="#FFE882" cx="245.251" cy="21.308" r="15.171"/>
<g>
	<g>
		<g>
			<path fill="#F28123" d="M238.329,18.025h2.373l0.711,2.067h0.946l-2.252-6.676h-1.067l-2.252,6.676h0.89L238.329,18.025z
				 M239.161,15.425c0.116-0.413,0.235-0.827,0.354-1.183l0,0c0.114,0.413,0.178,0.769,0.354,1.242l0.652,1.891h-2.02
				L239.161,15.425z"/>
			<path fill="#F28123" d="M249.355,25.528c0-0.354-0.235-0.885-0.649-1.595c0-0.237,0.179-0.533,0.476-0.828
				c0.297-0.354,0.532-0.59,0.594-0.767c-0.121-0.178-0.356-0.296-0.651-0.414c-0.062,0-0.238,0.117-0.651,0.355
				c-0.298,0.118-0.476,0.237-0.652,0.237c-0.062,0-0.178,0-0.297-0.06c-0.119-0.059-0.237-0.059-0.295-0.059h-0.181
				c0.117,0.179,0.181,0.355,0.181,0.414v4.608c0,0.118,0,0.296-0.062,0.533c-0.062,0.236-0.062,0.414-0.062,0.533
				c0,0.296,0.119,0.472,0.297,0.591l0.238-0.059c0.06,0,0.06-0.237,0.114-0.709c0-0.471,0-1.241,0-2.246c0-0.354,0-0.886,0-1.653
				c0-0.768,0-1.301,0-1.655c0.597-0.178,1.011-0.295,1.308-0.413l0.062,0.06v0.059c-0.119,0.237-0.181,0.472-0.299,0.65
				c-0.179,0.354-0.236,0.533-0.236,0.65c0,0.059,0.062,0.237,0.181,0.533c0.116,0.355,0.181,0.533,0.235,0.592l-0.06,0.117
				c-0.356-0.061-0.711-0.117-1.067-0.179c0.183,0.06,0.414,0.237,0.713,0.472c0.3,0.237,0.535,0.413,0.652,0.472
				C249.298,25.823,249.355,25.704,249.355,25.528z"/>
			<path fill="#F28123" d="M253.747,24.405c0.414,0,0.711-0.059,0.83-0.117c0-0.119-0.119-0.237-0.3-0.354
				c-0.176-0.118-0.295-0.118-0.473-0.118c-0.298,0-0.712,0.059-1.188,0.178c-0.593,0.118-1.009,0.178-1.125,0.236
				c-0.949,0.118-1.66,0.178-2.134,0.237c0.179,0.295,0.354,0.472,0.593,0.472c0.18,0,0.416,0,0.771-0.06
				c0.235-0.059,0.475-0.059,0.771-0.118c0.117,0.118,0.178,0.237,0.178,0.473v3.072l-0.059,0.058l-0.117-0.058
				c-0.477-0.119-0.832-0.178-1.067-0.237c0.183,0.116,0.356,0.354,0.595,0.649c0.237,0.296,0.416,0.533,0.535,0.65
				c0.413-0.236,0.648-0.708,0.648-1.477c0-1.182,0-1.713,0-1.654c0-0.649-0.061-1.183-0.178-1.654
				C252.796,24.464,253.331,24.405,253.747,24.405z"/>
			<path fill="#F28123" d="M253.923,26.354c-0.413-0.178-0.829-0.295-1.243-0.295c0.178,0.178,0.532,0.414,0.889,0.828
				c0.354,0.355,0.712,0.65,0.892,0.827c0.179,0,0.235-0.178,0.235-0.472C254.693,26.887,254.458,26.592,253.923,26.354z"/>
			<path fill="#F28123" d="M252.796,22.161c-0.114,0-0.295,0.06-0.592,0.118c-0.414,0.117-0.595,0.178-0.595,0.178
				c-0.297,0.058-0.711,0.118-1.243,0.178c0,0.236,0.237,0.355,0.651,0.355c0.235,0,0.649-0.06,1.246-0.118
				c0.649-0.118,1.008-0.178,1.063-0.295c0-0.117-0.06-0.178-0.238-0.295C253.036,22.161,252.917,22.161,252.796,22.161z"/>
			<path fill="#F28123" d="M250.128,25.883c0,0-0.06,0.118-0.178,0.354c-0.062,0.237-0.117,0.355-0.179,0.414
				c-0.121,0.118-0.239,0.295-0.416,0.472c-0.179,0.236-0.237,0.355-0.237,0.472c0,0.059,0,0.118,0.062,0.178
				c0.062,0.059,0.116,0.059,0.178,0.059c0.181,0,0.416-0.117,0.595-0.413c0.178-0.239,0.237-0.534,0.237-0.828
				C250.307,26.12,250.249,25.883,250.128,25.883z"/>
			<path fill="#F28123" d="M249.714,16.548c0,0,5.222-0.59,3.734,4.492c4.389-6.794-3.734-7.267-3.734-7.267v-1.241l-4.147,2.659
				l4.147,2.658V16.548z"/>
			<path fill="#F28123" d="M241.768,25.883c0,0-5.219,0.591-3.732-4.491c-4.389,6.794,3.732,7.268,3.732,7.268v1.24l4.15-2.658
				l-4.15-2.659V25.883L241.768,25.883z"/>
		</g>
	</g>
</g>
<circle fill="#FFE882" cx="48.028" cy="99.086" r="15"/>
<g>
	<g>
		<g>
			<path fill="#F28123" d="M55.929,91.59H39.831c-0.476,0-0.864,0.387-0.864,0.863v10.102c0,0.477,0.387,0.862,0.864,0.862h6.021
				v1.956H43.51c-0.44,0-0.799,0.356-0.799,0.799c0,0.443,0.359,0.8,0.799,0.8h8.743c0.442,0,0.799-0.356,0.799-0.8
				c0-0.44-0.357-0.799-0.799-0.799h-2.342v-1.956h6.021c0.476,0,0.864-0.386,0.864-0.862V92.454
				C56.793,91.977,56.406,91.59,55.929,91.59z M55.497,102.121H40.261v-9.236h15.236V102.121z"/>
			<path fill="#F28123" d="M43.05,97.992l2.722,1.267c0.071,0.031,0.146,0.049,0.224,0.049c0.1,0,0.199-0.029,0.284-0.082
				c0.153-0.098,0.245-0.265,0.245-0.444v-0.015c0-0.207-0.12-0.395-0.307-0.479l-1.702-0.792l1.703-0.792
				c0.186-0.084,0.306-0.274,0.306-0.479v-0.013c0-0.183-0.091-0.349-0.245-0.446c-0.084-0.054-0.183-0.082-0.285-0.082
				c-0.077,0-0.154,0.016-0.223,0.049L43.05,97c-0.186,0.086-0.306,0.274-0.306,0.479v0.037
				C42.744,97.715,42.864,97.905,43.05,97.992z"/>
			<path fill="#F28123" d="M46.549,100.571c0.099,0.137,0.259,0.217,0.428,0.217h0.014c0.23,0,0.434-0.146,0.504-0.369l1.794-5.557
				c0.051-0.16,0.023-0.338-0.077-0.473c-0.099-0.138-0.259-0.219-0.428-0.219h-0.013c-0.23,0-0.434,0.146-0.505,0.366l-1.793,5.56
				C46.421,100.258,46.449,100.434,46.549,100.571z"/>
			<path fill="#F28123" d="M49.235,96.221c0,0.205,0.12,0.393,0.308,0.479l1.702,0.791l-1.702,0.793
				c-0.187,0.086-0.308,0.272-0.308,0.479v0.014c0,0.182,0.092,0.35,0.246,0.445c0.084,0.055,0.184,0.084,0.284,0.084
				c0.078,0,0.152-0.019,0.224-0.051l2.723-1.267c0.186-0.087,0.306-0.275,0.306-0.479v-0.037c0-0.205-0.12-0.394-0.306-0.479
				l-2.723-1.269c-0.069-0.031-0.146-0.049-0.223-0.049c-0.102,0-0.2,0.029-0.284,0.084c-0.153,0.096-0.246,0.264-0.246,0.444
				L49.235,96.221L49.235,96.221z"/>
		</g>
	</g>
</g>
<circle fill="#FFE882" cx="167.329" cy="85.993" r="14.442"/>
<g>
	<g>
		<path fill="#F28123" d="M174.486,83.601l-11.213-1.045c-0.063-0.008-0.119-0.008-0.178-0.004l-0.449-2.172
			c-0.01-0.043-0.021-0.087-0.039-0.123c-0.067-0.173-0.213-0.314-0.405-0.373l-2.138-0.627c-0.33-0.098-0.676,0.09-0.772,0.424
			c-0.099,0.328,0.091,0.676,0.425,0.773l1.782,0.524l2.146,10.341c0.043,0.305,0.301,0.537,0.621,0.537l9.228-0.002
			c0.344,0,0.621-0.277,0.621-0.625c0-0.342-0.277-0.621-0.621-0.621l-8.718,0.004l-0.297-1.43h9.179
			c0.479,0,0.896-0.318,0.981-0.757l0.741-3.736C175.475,84.156,175.068,83.656,174.486,83.601z"/>
		<circle fill="#F28123" cx="166.036" cy="93.669" r="1.244"/>
		<circle fill="#F28123" cx="171.982" cy="93.669" r="1.244"/>
		<path fill="#F28123" d="M164.967,82.076l0.143,0.016l0.441,0.037l1.815,0.173l0.063-0.698c0.09-0.945,0.926-1.637,1.87-1.549
			c0.945,0.09,1.636,0.925,1.55,1.87l-0.065,0.698l1.815,0.17l0.58,0.055c0.213,0.021,0.403-0.139,0.424-0.352l0.058-0.623
			c0.021-0.213-0.138-0.404-0.351-0.423l-0.58-0.056c-0.047-0.479-0.188-0.936-0.416-1.346l0.449-0.371
			c0.166-0.139,0.188-0.385,0.051-0.552l-0.397-0.479c-0.14-0.166-0.385-0.188-0.551-0.051l-0.451,0.369
			c-0.362-0.293-0.782-0.521-1.244-0.658l0.054-0.579c0.021-0.212-0.14-0.403-0.353-0.424l-0.621-0.058
			c-0.215-0.021-0.405,0.138-0.426,0.352l-0.054,0.579c-0.479,0.047-0.938,0.19-1.347,0.414l-0.373-0.448
			c-0.139-0.166-0.383-0.188-0.549-0.051l-0.481,0.4c-0.166,0.137-0.188,0.382-0.051,0.549l0.372,0.448
			c-0.293,0.362-0.521,0.78-0.657,1.245l-0.58-0.055c-0.213-0.021-0.405,0.137-0.424,0.352l-0.058,0.623
			C164.596,81.867,164.755,82.055,164.967,82.076z"/>
	</g>
</g>
<circle fill="#FFE882" cx="199.624" cy="25.646" r="15.048"/>
<g>
	<path fill="#F28123" d="M194.891,18.661v3.548l-4.729-3.548v11.828l4.729-3.548v3.548h3.858c0.731,2.063,2.694,3.549,5.013,3.551
		c2.317-0.002,4.281-1.484,5.018-3.551h0.311V18.661H194.891z M203.762,32.785c-2.248-0.006-4.066-1.822-4.07-4.072
		c0.006-2.246,1.822-4.065,4.07-4.069c2.248,0.005,4.064,1.823,4.071,4.069C207.827,30.961,206.01,32.78,203.762,32.785z"/>
	<path fill="#F28123" d="M203.17,31.08h-1.773v-1.773L203.17,31.08z M206.721,27.533l-2.959,2.955l-1.771-1.775l2.957-2.955
		L206.721,27.533z"/>
</g>
<circle fill="#FFE882" cx="55.668" cy="69.773" r="14.948"/>
<path fill="#F28123" d="M64.912,76.987l0.922-0.944l-2.967-3.041c0.729-0.95,1.167-2.147,1.167-3.446
	c0-2.545-1.667-4.697-3.941-5.371c-1.495-2.039-3.851-3.25-6.347-3.25c-4.371,0-7.929,3.646-7.929,8.125s3.558,8.127,7.929,8.127
	c1.957,0,3.82-0.73,5.273-2.06c1.1-0.092,2.106-0.519,2.926-1.176L64.912,76.987z M57.08,74.926c-0.443,0.264-0.913,0.473-1.4,0.627
	c0.148-0.303,0.283-0.646,0.406-1.029C56.401,74.69,56.733,74.826,57.08,74.926z M53.746,75.846c-0.215,0-0.684-0.459-1.096-1.729
	c-0.178-0.545-0.322-1.168-0.433-1.844c0.497-0.037,1.009-0.057,1.528-0.057c0.014,0,0.025,0,0.035,0
	c0.305,0.573,0.706,1.086,1.179,1.516C54.534,75.266,54.002,75.846,53.746,75.846z M47.122,69.057c0-1.02,0.221-1.988,0.616-2.854
	c0.807,0.364,1.846,0.644,3.021,0.819c-0.059,0.656-0.089,1.34-0.089,2.035c0,0.697,0.03,1.379,0.089,2.037
	c-1.175,0.176-2.214,0.455-3.021,0.82C47.343,71.044,47.122,70.078,47.122,69.057z M51.975,69.057c0-0.646,0.027-1.281,0.08-1.889
	c0.506,0.041,1.027,0.063,1.562,0.066c-0.317,0.707-0.494,1.492-0.494,2.32c0,0.459,0.056,0.903,0.157,1.334
	c-0.417,0.008-0.826,0.028-1.226,0.061C52.002,70.342,51.975,69.706,51.975,69.057z M53.746,62.27c0.266,0,0.961,0.748,1.412,2.933
	c-0.25,0.207-0.48,0.437-0.693,0.685c-0.239,0.008-0.479,0.014-0.719,0.014c-0.52,0-1.031-0.021-1.528-0.057
	c0.11-0.677,0.255-1.3,0.433-1.847C53.063,62.729,53.534,62.27,53.746,62.27z M56.33,64.462c-0.179-0.743-0.397-1.377-0.65-1.896
	c0.908,0.285,1.75,0.768,2.465,1.416C57.504,64.035,56.893,64.201,56.33,64.462z M51.814,62.565
	c-0.139,0.287-0.274,0.621-0.399,1.009c-0.206,0.631-0.37,1.346-0.494,2.12c-0.975-0.146-1.84-0.368-2.511-0.649
	C49.245,63.88,50.435,62.997,51.814,62.565z M48.409,73.074c0.672-0.281,1.535-0.505,2.512-0.654
	c0.123,0.774,0.287,1.492,0.494,2.123c0.125,0.392,0.26,0.726,0.398,1.009C50.435,75.119,49.245,74.235,48.409,73.074z
	 M58.578,73.807c-2.29,0-4.154-1.908-4.154-4.254c0-2.348,1.864-4.254,4.154-4.254c2.289,0,4.153,1.906,4.153,4.254
	C62.731,71.899,60.867,73.807,58.578,73.807z"/>
</svg>
