<?xml version="1.0" encoding="utf-8"?>
<!-- Generator: Adobe Illustrator 16.0.0, SVG Export Plug-In . SVG Version: 6.00 Build 0)  -->
<!DOCTYPE svg PUBLIC "-//W3C//DTD SVG 1.1//EN" "http://www.w3.org/Graphics/SVG/1.1/DTD/svg11.dtd">
<svg version="1.1" id="Layer_1" xmlns="http://www.w3.org/2000/svg" xmlns:xlink="http://www.w3.org/1999/xlink" x="0px" y="0px"
	 width="324.205px" height="53.514px" viewBox="0 0 324.205 53.514" enable-background="new 0 0 324.205 53.514"
	 xml:space="preserve">
<g>
	<g enable-background="new    ">
		<path fill="#C53D15" d="M13.621,16.062h-3.574c-2.344,0-4.083-0.371-5.215-1.113s-1.699-1.865-1.699-3.369
			c0-1.543,0.571-2.69,1.714-3.442s2.875-1.128,5.2-1.128h16.904c2.304,0,4.033,0.376,5.186,1.128
			c1.152,0.752,1.729,1.899,1.729,3.442c0,1.504-0.571,2.627-1.714,3.369s-2.876,1.113-5.2,1.113h-3.604v27.246
			c0,2.324-0.4,4.053-1.201,5.186c-0.801,1.133-2.021,1.699-3.662,1.699s-2.861-0.566-3.662-1.699
			c-0.801-1.133-1.201-2.861-1.201-5.186V16.062z"/>
		<path fill="#C53D15" d="M51.648,46.795c-0.957,1.172-2.114,2.065-3.472,2.681c-1.358,0.615-2.837,0.923-4.438,0.923
			c-4.043,0-7.446-1.592-10.21-4.775c-2.764-3.184-4.146-7.158-4.146-11.924c0-4.707,1.425-8.672,4.277-11.895
			c2.852-3.223,6.328-4.834,10.43-4.834c1.601,0,3.022,0.273,4.263,0.82c1.24,0.547,2.339,1.396,3.296,2.549
			c0.546-0.996,1.201-1.748,1.963-2.256s1.611-0.762,2.549-0.762c1.582,0,2.754,0.557,3.516,1.67s1.143,2.842,1.143,5.186v19.014
			c0,2.324-0.386,4.053-1.157,5.186c-0.772,1.133-1.938,1.699-3.501,1.699c-1.055,0-1.944-0.264-2.666-0.791
			C52.771,48.758,52.156,47.927,51.648,46.795z M39.167,33.582c0,2.324,0.566,4.194,1.699,5.61c1.132,1.416,2.607,2.124,4.424,2.124
			c1.777,0,3.232-0.718,4.365-2.153c1.132-1.436,1.699-3.296,1.699-5.581c0-2.227-0.571-4.043-1.714-5.449s-2.593-2.109-4.351-2.109
			c-1.797,0-3.267,0.698-4.409,2.095S39.167,31.336,39.167,33.582z"/>
		<path fill="#C53D15" d="M76.433,50.574c-3.379,0-6.177-0.674-8.394-2.021c-2.217-1.348-3.325-3.018-3.325-5.01
			c0-1.191,0.352-2.197,1.055-3.018s1.553-1.23,2.549-1.23s2.461,0.459,4.395,1.377s3.388,1.377,4.365,1.377
			c0.781,0,1.416-0.186,1.904-0.557c0.488-0.371,0.732-0.83,0.732-1.377c0-0.938-1.514-2.012-4.541-3.223l-0.615-0.234
			c-3.457-1.445-5.82-2.876-7.09-4.292c-1.27-1.416-1.904-3.208-1.904-5.376c0-2.91,1.118-5.337,3.354-7.28
			c2.236-1.943,5.063-2.915,8.481-2.915c3.086,0,5.703,0.654,7.852,1.963c2.148,1.309,3.223,2.852,3.223,4.629
			c0,1.113-0.376,2.051-1.128,2.813c-0.752,0.762-1.675,1.143-2.769,1.143c-0.723,0-1.948-0.381-3.677-1.143
			s-3.042-1.143-3.94-1.143c-0.645,0-1.162,0.151-1.553,0.454c-0.391,0.303-0.586,0.698-0.586,1.187c0,0.879,1.25,1.797,3.75,2.754
			c1.172,0.449,2.099,0.83,2.783,1.143c2.832,1.27,4.849,2.612,6.05,4.028s1.802,3.13,1.802,5.142c0,3.086-1.206,5.659-3.618,7.72
			C83.176,49.544,80.125,50.574,76.433,50.574z"/>
		<path fill="#C53D15" d="M102.947,28.191l8.057-8.35c0.859-0.898,1.68-1.553,2.461-1.963c0.781-0.41,1.572-0.615,2.373-0.615
			c1.113,0,2.055,0.361,2.827,1.084c0.771,0.723,1.157,1.582,1.157,2.578c0,0.742-0.215,1.514-0.645,2.314
			c-0.43,0.801-1.016,1.553-1.758,2.256l-6.357,5.859l8.818,10.4c0.645,0.762,1.113,1.509,1.406,2.241s0.439,1.499,0.439,2.3
			c0,1.094-0.425,2.017-1.274,2.769s-1.9,1.128-3.149,1.128c-0.918,0-1.783-0.239-2.593-0.718c-0.811-0.479-1.587-1.216-2.329-2.212
			l-9.434-12.598v8.525c0,2.344-0.391,4.097-1.172,5.259c-0.781,1.162-1.973,1.743-3.574,1.743c-1.582,0-2.764-0.581-3.545-1.743
			c-0.781-1.162-1.172-2.915-1.172-5.259V10.789c0-2.344,0.385-4.082,1.157-5.215c0.771-1.133,1.958-1.699,3.56-1.699
			c1.601,0,2.793,0.576,3.574,1.729c0.781,1.152,1.172,2.881,1.172,5.186V28.191z"/>
		<path fill="#C53D15" d="M131.453,49.666c-2.52,0-4.248-0.43-5.186-1.289s-1.406-2.471-1.406-4.834V13.836
			c0-2.598,0.498-4.385,1.494-5.361s2.734-1.465,5.215-1.465h7.998c4.219,0,7.49,0.933,9.814,2.798
			c2.324,1.865,3.486,4.468,3.486,7.808c0,2.09-0.43,3.818-1.289,5.186c-0.86,1.367-2.188,2.441-3.984,3.223
			c2.793,0.684,4.932,1.958,6.416,3.823c1.484,1.865,2.227,4.194,2.227,6.987c0,4.023-1.333,7.168-3.999,9.434
			s-6.392,3.398-11.177,3.398H131.453z M134.587,23.621h4.072c1.445,0,2.607-0.381,3.486-1.143s1.318-1.758,1.318-2.988
			c0-1.289-0.444-2.314-1.333-3.076c-0.889-0.762-2.085-1.143-3.589-1.143h-3.955V23.621z M134.587,41.316h4.863
			c2.148,0,3.784-0.41,4.907-1.23c1.123-0.82,1.685-2.012,1.685-3.574c0-1.621-0.552-2.822-1.655-3.604
			c-1.104-0.781-2.808-1.172-5.112-1.172h-4.688V41.316z"/>
	</g>
	<g>
		<path fill="#C53D15" d="M196.97,46.417c-0.08,1.31-1.219,2.379-2.529,2.379h-29.064c-1.311,0-2.436-1.071-2.5-2.381l-1.672-33.995
			c-0.064-1.309,0.955-2.38,2.266-2.38h33.355c1.31,0,2.316,1.07,2.236,2.378L196.97,46.417z"/>
		<path fill="#374C54" d="M180.31,39.856c-25.407,0-25.407-21.641-25.407-28.75c0-0.855,0.693-1.549,1.548-1.549
			S158,10.25,158,11.106c0,3.525,0,10.092,2.835,15.666c3.37,6.627,9.922,9.985,19.475,9.985c6.825,0,12.08-1.799,15.614-5.346
			c5.87-5.891,5.837-15.283,5.821-19.797l-0.002-0.641c0-0.855,0.693-1.55,1.549-1.55s1.549,0.693,1.549,1.55l0.001,0.63
			c0.017,4.931,0.054,15.191-6.724,21.993C193.979,37.751,187.987,39.856,180.31,39.856z"/>
		<path fill="#546F7A" d="M160.833,10.729c0,0.422-0.416,0.763-0.929,0.763h-5.156c-0.513,0-0.928-0.341-0.928-0.763V7.994
			c0-0.421,0.416-0.763,0.928-0.763h5.156c0.513,0,0.929,0.342,0.929,0.763V10.729z"/>
		<path fill="#546F7A" d="M205.712,10.812c0,0.421-0.416,0.763-0.928,0.763h-5.156c-0.513,0-0.928-0.342-0.928-0.763V8.077
			c0-0.422,0.415-0.763,0.928-0.763h5.156c0.513,0,0.928,0.341,0.928,0.763V10.812z"/>
		<path fill="#E64A19" d="M201.002,11.458c0,0.664-0.539,1.203-1.203,1.203h-39.603c-0.664,0-1.203-0.539-1.203-1.203V7.431
			c0-0.664,0.539-1.203,1.203-1.203h39.603c0.664,0,1.203,0.539,1.203,1.203V11.458z"/>
	</g>
	<g enable-background="new    ">
		<path fill="#C53D15" d="M204.089,32.699c0-4.98,1.494-9.023,4.482-12.129s6.914-4.658,11.777-4.658
			c3.145,0,5.693,0.562,7.646,1.685s2.93,2.583,2.93,4.38c0,1.152-0.371,2.109-1.113,2.871s-1.68,1.143-2.813,1.143
			c-0.488,0-1.475-0.239-2.959-0.718s-2.715-0.718-3.691-0.718c-1.953,0-3.529,0.732-4.73,2.197s-1.803,3.389-1.803,5.771
			c0,2.48,0.615,4.429,1.846,5.845s2.91,2.124,5.039,2.124c1.035,0,2.271-0.239,3.707-0.718s2.367-0.718,2.797-0.718
			c1.035,0,1.904,0.396,2.607,1.187s1.055,1.763,1.055,2.915c0,1.738-1.064,3.223-3.193,4.453s-4.766,1.846-7.91,1.846
			c-4.648,0-8.422-1.548-11.322-4.644S204.089,37.679,204.089,32.699z"/>
		<path fill="#C53D15" d="M243.933,27.191l8.057-8.35c0.859-0.898,1.68-1.553,2.461-1.963s1.572-0.615,2.373-0.615
			c1.113,0,2.056,0.361,2.828,1.084c0.771,0.723,1.156,1.582,1.156,2.578c0,0.742-0.215,1.514-0.645,2.314s-1.016,1.553-1.758,2.256
			l-6.357,5.859l8.818,10.4c0.645,0.762,1.113,1.509,1.406,2.241s0.439,1.499,0.439,2.3c0,1.094-0.424,2.017-1.273,2.769
			s-1.9,1.128-3.15,1.128c-0.918,0-1.782-0.239-2.592-0.718c-0.811-0.479-1.588-1.216-2.33-2.212l-9.434-12.598v8.525
			c0,2.344-0.391,4.097-1.172,5.259s-1.973,1.743-3.574,1.743c-1.582,0-2.764-0.581-3.545-1.743s-1.172-2.915-1.172-5.259V9.789
			c0-2.344,0.386-4.082,1.158-5.215c0.771-1.133,1.957-1.699,3.559-1.699s2.793,0.576,3.574,1.729s1.172,2.881,1.172,5.186V27.191z"
			/>
		<path fill="#C53D15" d="M273.171,35.336c0.215,1.777,0.947,3.164,2.197,4.16s2.9,1.494,4.951,1.494
			c1.777,0,3.755-0.513,5.934-1.538c2.178-1.025,3.52-1.538,4.027-1.538c1.113,0,2.021,0.342,2.725,1.025s1.055,1.563,1.055,2.637
			c0,2.031-1.416,3.862-4.248,5.493s-6.162,2.446-9.99,2.446c-4.668,0-8.564-1.592-11.689-4.775s-4.688-7.178-4.688-11.982
			c0-4.824,1.52-8.848,4.557-12.07c3.036-3.223,6.82-4.834,11.352-4.834c4.375,0,8.037,1.514,10.986,4.541s4.424,6.729,4.424,11.104
			c0,1.426-0.322,2.422-0.967,2.988s-1.885,0.85-3.721,0.85H273.171z M273.054,29.154h12.48c-0.117-1.602-0.762-2.939-1.934-4.014
			s-2.568-1.611-4.189-1.611c-1.602,0-2.979,0.508-4.131,1.523S273.386,27.435,273.054,29.154z"/>
		<path fill="#C53D15" d="M300.827,25.433h-0.352c-1.66,0-2.963-0.366-3.91-1.099s-1.422-1.724-1.422-2.974
			c0-1.289,0.475-2.285,1.422-2.988s2.367-1.113,4.262-1.23v-4.131c0-2.324,0.391-4.053,1.172-5.186s1.973-1.699,3.574-1.699
			c1.582,0,2.759,0.566,3.531,1.699c0.771,1.133,1.156,2.861,1.156,5.186v4.131h0.82c1.875,0,3.336,0.373,4.381,1.117
			c1.044,0.745,1.566,1.774,1.566,3.087c0,1.353-0.502,2.372-1.508,3.058c-1.007,0.687-2.506,1.029-4.498,1.029h-0.762v16.758
			c0,2.344-0.381,4.077-1.143,5.2s-1.943,1.685-3.545,1.685s-2.793-0.566-3.574-1.699s-1.172-2.861-1.172-5.186V25.433z"/>
	</g>
</g>
</svg>
