<?xml version="1.0" encoding="utf-8"?>
<!-- Generator: Adobe Illustrator 16.0.0, SVG Export Plug-In . SVG Version: 6.00 Build 0)  -->
<!DOCTYPE svg PUBLIC "-//W3C//DTD SVG 1.1//EN" "http://www.w3.org/Graphics/SVG/1.1/DTD/svg11.dtd">
<svg version="1.1" id="Layer_1" xmlns="http://www.w3.org/2000/svg" xmlns:xlink="http://www.w3.org/1999/xlink" x="0px" y="0px"
	 width="492px" height="344px" viewBox="214.5 93.5 492 344" enable-background="new 214.5 93.5 492 344" xml:space="preserve">
<g>
	
		<linearGradient id="SVGID_1_" gradientUnits="userSpaceOnUse" x1="194.1655" y1="-54.9365" x2="194.1655" y2="-54.8365" gradientTransform="matrix(0.3951 0 0 -0.3951 284.3027 195.9638)">
		<stop  offset="0.0049" style="stop-color:#EB7835"/>
		<stop  offset="0.2611" style="stop-color:#EE7637"/>
		<stop  offset="0.3541" style="stop-color:#DE6532"/>
		<stop  offset="0.4662" style="stop-color:#D0582D"/>
		<stop  offset="0.5665" style="stop-color:#CC532C"/>
		<stop  offset="1" style="stop-color:#CC532C"/>
	</linearGradient>
	<path fill="url(#SVGID_1_)" d="M361.006,217.627L361.006,217.627C361.046,217.667,361.046,217.667,361.006,217.627L361.006,217.627
		z"/>
	
		<linearGradient id="SVGID_2_" gradientUnits="userSpaceOnUse" x1="226.4966" y1="-145.7397" x2="226.4966" y2="210.5708" gradientTransform="matrix(0.3951 0 0 -0.3951 284.3027 195.9638)">
		<stop  offset="0.0049" style="stop-color:#EB7835"/>
		<stop  offset="0.2611" style="stop-color:#EE7637"/>
		<stop  offset="0.3541" style="stop-color:#DE6532"/>
		<stop  offset="0.4662" style="stop-color:#D0582D"/>
		<stop  offset="0.5665" style="stop-color:#CC532C"/>
		<stop  offset="1" style="stop-color:#CC532C"/>
	</linearGradient>
	<path fill="url(#SVGID_2_)" d="M442.559,251.212c-0.079-1.738-1.225-3.99-1.581-5.097c-0.908-2.924-1.817-5.887-2.766-8.811
		c-1.027-3.201-2.094-6.401-3.2-9.602c-1.976-5.729-3.912-11.498-5.848-17.227c-2.45-7.23-4.702-14.541-7.23-21.771
		c-0.396-1.146-0.633-0.83-1.383-1.541c-0.316-0.316-0.791-0.079-1.106-0.355c-0.475,0.04-0.909,0.079-1.383,0.079
		c-10.669,0-21.297,0-31.966,0c-2.015,0-1.817,0.197-1.817-1.897c0-8.851,0-17.741,0-26.591c0-0.474,0.04-0.909,0.04-1.383
		c-0.04-0.079-0.079-0.158-0.119-0.198c0-8.06,0-16.081,0-24.102c-0.118-0.197-0.236-0.316-0.315-0.435
		c0.039,0,0.118-0.04,0.158-0.04c0.039-0.593,0.079-1.146,0.079-1.738c0-4.583,0-9.167,0-13.75c0-1.106-0.079-2.213-0.119-3.319
		c-0.237-0.118-0.435-0.237-0.672-0.355l0,0c0-0.079-0.039-0.198-0.118-0.276c-0.554,0-1.067,0.039-1.581,0.039
		c-24.576,0-49.191,0-73.768,0c-0.592,0-1.146-0.039-1.738-0.079c-0.079,0.079-0.119,0.158-0.119,0.237
		c-0.474,0.079-0.593,0.514-0.83,0.791c-0.04,0.869-0.119,1.738-0.119,2.607c0,16.002,0,31.965,0,47.928
		c-0.04,3.793-0.04,7.586,0,11.379c0,0.277,0,0.553,0,0.83c0,0.75,0.04,1.501,0.04,2.252c0.276,0.119,0.553,1.225,0.83,1.501
		c0.514,0.553,1.265,0.869,1.976,1.146c6.559,2.805,12.92,5.689,19.124,9.285c6.045,3.517,11.814,7.428,17.345,11.735
		c0.237,0.158,0.435,0.355,0.672,0.514c5.334,4.228,10.905,8.811,15.41,13.908c0.553,0.632,1.106,1.304,1.66,1.936
		c0.04,0.198,0.158,0.316,0.316,0.395c-0.04-0.04-0.079-0.079-0.119-0.158c0.04,0.039,0.079,0.079,0.119,0.158
		c0.04,0.158,0.119,0.277,0.276,0.316c0.316,0.395,0.632,0.79,0.948,1.185c-0.039-0.079-0.079-0.118-0.158-0.197
		c0.04,0.197,0.119,0.355,0.316,0.395c1.857,2.41,3.596,4.899,5.216,7.468v-0.04c0.039,0.079,0.079,0.158,0.118,0.237
		c0.079,0.04,0.119,0.119,0.158,0.198c-0.04-0.04-0.079-0.079-0.119-0.158c0.87,1.383,1.699,2.806,2.489,4.268
		c3.122,5.729,5.294,11.814,7.705,17.859c0.277,0.632,0.514,1.936,1.067,2.371c0.672,0.474,1.698,0.118,2.41,0.118
		c0.237,0,0.514,0,0.751,0c0.197,0.079,0.395,0.119,0.592,0.277c0.237,0.158,0.909-0.158,1.186-0.198c0.711-0.079,1.462,0,2.174,0
		c1.501,0,3.042,0,4.543,0c12.367,0,24.774,0.316,37.142-0.119c3.517,0.04,6.993,0.119,10.51,0.158c0.633,0,1.265,0,1.857-0.237
		C442.361,252.872,442.598,252.121,442.559,251.212z M377.72,246.352L377.72,246.352c0.039,0,0.079,0.04,0.079,0.04
		S377.759,246.392,377.72,246.352z M378.075,247.103C378.075,247.063,378.075,247.063,378.075,247.103c0.04,0,0.079,0.04,0.079,0.04
		C378.154,247.103,378.115,247.103,378.075,247.103z M384.002,177.997L384.002,177.997c0,0.039,0,0.079,0,0.118
		C384.002,178.076,384.002,178.036,384.002,177.997z M436.632,234.657L436.632,234.657c0.039-0.04,0.079-0.079,0.079-0.158
		c0.079,0,0.158,0,0.236,0c0,0.04,0,0.04,0,0.079C436.829,234.499,436.711,234.538,436.632,234.657z M437.58,236.395
		c0-0.039,0-0.039,0-0.079h0.039C437.619,236.356,437.619,236.356,437.58,236.395z M438.528,239.042
		C438.528,239.003,438.528,239.003,438.528,239.042C438.528,239.003,438.528,239.003,438.528,239.042
		C438.567,239.003,438.567,239.003,438.528,239.042z M439.2,240.939L439.2,240.939L439.2,240.939L439.2,240.939z"/>
	
		<linearGradient id="SVGID_3_" gradientUnits="userSpaceOnUse" x1="214.6284" y1="-82.8584" x2="214.6284" y2="-82.2516" gradientTransform="matrix(0.3951 0 0 -0.3951 284.3027 195.9638)">
		<stop  offset="0.0049" style="stop-color:#EB7835"/>
		<stop  offset="0.2611" style="stop-color:#EE7637"/>
		<stop  offset="0.3541" style="stop-color:#DE6532"/>
		<stop  offset="0.4662" style="stop-color:#D0582D"/>
		<stop  offset="0.5665" style="stop-color:#CC532C"/>
		<stop  offset="1" style="stop-color:#CC532C"/>
	</linearGradient>
	<path fill="url(#SVGID_3_)" d="M369.146,228.651C369.146,228.651,369.146,228.611,369.146,228.651
		c-0.04-0.04-0.079-0.119-0.118-0.158c0,0.04,0,0.119,0,0.158c0.079,0.04,0.118,0.04,0.158,0.079
		C369.146,228.69,369.146,228.651,369.146,228.651L369.146,228.651z"/>
</g>
<path fill="#E96C34" d="M688.954,280.451c-0.554-0.514-0.277-1.146-0.316-1.738c0.197-0.119,0.276-0.08,0.276,0.157
	c0.039,0.198,0.039,0.356,0.079,0.554C689.19,279.74,689.23,280.096,688.954,280.451z"/>
<path fill="#E56631" d="M686.859,272.074c0-0.236,0-0.475,0.04-0.711c0.157-0.119,0.276-0.079,0.315,0.158
	c-0.039,0.078-0.039,0.158,0.04,0.197c0.276,0.276,0.158,0.593,0.158,0.908c-0.04,0.158-0.158,0.238-0.356,0.238
	C686.701,272.667,686.623,272.43,686.859,272.074z"/>
<path fill="#E56631" d="M687.531,272.904c-0.039,0.078-0.039,0.158,0.039,0.236c0.237,0.316,0.198,0.672,0.04,1.027l-0.04,0.04
	c-0.829-0.276-0.711-0.829-0.355-1.383l0.04-0.04C687.413,272.667,687.492,272.707,687.531,272.904z"/>
<g>
	
		<linearGradient id="SVGID_4_" gradientUnits="userSpaceOnUse" x1="1047.3428" y1="-313.0498" x2="577.8542" y2="-41.9906" gradientTransform="matrix(0.3951 0 0 -0.3951 284.3027 195.9638)">
		<stop  offset="0" style="stop-color:#FFAC6A"/>
		<stop  offset="0" style="stop-color:#EE7B37"/>
		<stop  offset="0.0183" style="stop-color:#EC7836"/>
		<stop  offset="0.1829" style="stop-color:#DA6431"/>
		<stop  offset="0.3455" style="stop-color:#D0572D"/>
		<stop  offset="0.5025" style="stop-color:#CC532C"/>
		<stop  offset="0.7389" style="stop-color:#CC532C"/>
		<stop  offset="1" style="stop-color:#CC532C"/>
	</linearGradient>
	<path fill="url(#SVGID_4_)" d="M691.048,296.019c-0.475-9.799-2.173-19.519-5.097-28.844c-10.787-34.494-38.09-62.31-71.912-74.717
		c-29.752-10.905-60.809-7.665-90.205,2.608c-0.593,0.198-0.987,0.672-1.383,1.067l0.039-0.04c-0.197,0.079-0.315,0.198-0.395,0.355
		c-0.197,0.04-0.316,0.198-0.355,0.356c-0.277,1.146-1.66,2.489-2.016,3.833c-1.066,3.991-0.593,8.258-0.553,12.328
		c0.039,5.334,0.039,10.668,0,16.002c-0.04,5.255,0.237,10.47,0.355,15.726c0.158,6.559,0,13.078,0,19.637
		c0,0.435,0.039,0.83,0,1.225c-0.079,0.632,0.316,0.909,0.79,1.185c3.003,1.739,5.888-3.951,7.468-5.689
		c3.438-3.754,7.705-6.915,12.012-9.602c6.52-4.03,13.75-6.954,21.258-8.495c28.527-5.848,63.021,12.209,70.015,41.487
		c2.173,9.088,3.556,18.334,4.544,27.619c0.908,8.692,1.066,17.385,3.477,25.841c1.462,5.136,3.319,10.193,5.492,15.054
		c2.331,5.137,5.018,10.075,8.1,14.777c1.581,2.449,3.279,4.82,5.058,7.112c1.186,1.501,3.358,5.649,5.058,3.951
		c0.119-0.158,0.237-0.237,0.316-0.396c0.118-0.118,0.236-0.237,0.316-0.355c2.884-5.689,7.31-10.787,10.47-16.437
		c3.596-6.361,6.796-12.96,9.404-19.756c5.255-13.632,8.1-28.172,7.784-42.792C691.127,298.033,691.087,297.046,691.048,296.019z
		 M629.686,278.199l0.04-0.04c-0.04,0.04-0.04,0.118-0.079,0.198c-0.079,0-0.158,0-0.237,0v-0.04
		C629.528,278.317,629.607,278.317,629.686,278.199z M681.645,256.388c0,0.04,0,0.04,0,0.079l0,0
		c-0.079-0.04-0.119-0.119-0.158-0.198C681.525,256.309,681.604,256.349,681.645,256.388z M679.233,251.173
		c-0.039,0-0.039,0-0.079,0l0,0c0,0,0,0,0,0.039l0,0c-0.118-0.079-0.157-0.158-0.157-0.276
		C678.997,251.054,679.115,251.133,679.233,251.173z M678.957,250.896L678.957,250.896L678.957,250.896z M675.796,244.574v0.04
		V244.574l-0.039,0.04c-0.04-0.04-0.079-0.079-0.118-0.119C675.678,244.535,675.757,244.535,675.796,244.574z M675.046,243.745
		c0.039-0.079,0.079-0.158,0.079-0.237c0,0,0,0,0.039,0c-0.039,0.079-0.039,0.158-0.039,0.277
		C675.085,243.745,675.046,243.745,675.046,243.745z M657.226,220.195c-0.039-0.04-0.079-0.079-0.118-0.118
		C657.146,220.116,657.187,220.156,657.226,220.195z M617.477,259.984c0.158,0.079,0.277,0.158,0.436,0.197
		C617.754,260.142,617.635,260.103,617.477,259.984z M619.729,262.71L619.729,262.71C619.729,262.75,619.729,262.75,619.729,262.71
		L619.729,262.71z M625.933,271.442L625.933,271.442c0.039,0,0.039,0,0.079,0.039C626.012,271.481,625.972,271.481,625.933,271.442z
		 M626.288,272.113L626.288,272.113c0.039,0,0.079,0.04,0.079,0.04S626.327,272.113,626.288,272.113z"/>
	
		<linearGradient id="SVGID_5_" gradientUnits="userSpaceOnUse" x1="802.9561" y1="-134.1167" x2="802.8378" y2="-134.0485" gradientTransform="matrix(0.3951 0 0 -0.3951 284.3027 195.9638)">
		<stop  offset="0" style="stop-color:#FFAC6A"/>
		<stop  offset="0" style="stop-color:#EE7B37"/>
		<stop  offset="0.0183" style="stop-color:#EC7836"/>
		<stop  offset="0.1829" style="stop-color:#DA6431"/>
		<stop  offset="0.3455" style="stop-color:#D0572D"/>
		<stop  offset="0.5025" style="stop-color:#CC532C"/>
		<stop  offset="0.7389" style="stop-color:#CC532C"/>
		<stop  offset="1" style="stop-color:#CC532C"/>
	</linearGradient>
	<path fill="url(#SVGID_5_)" d="M601.554,248.96L601.554,248.96C601.554,248.92,601.515,248.92,601.554,248.96L601.554,248.96z"/>
	
		<linearGradient id="SVGID_6_" gradientUnits="userSpaceOnUse" x1="801.1543" y1="-133.3203" x2="801.0375" y2="-133.2529" gradientTransform="matrix(0.3951 0 0 -0.3951 284.3027 195.9638)">
		<stop  offset="0" style="stop-color:#FFAC6A"/>
		<stop  offset="0" style="stop-color:#EE7B37"/>
		<stop  offset="0.0183" style="stop-color:#EC7836"/>
		<stop  offset="0.1829" style="stop-color:#DA6431"/>
		<stop  offset="0.3455" style="stop-color:#D0572D"/>
		<stop  offset="0.5025" style="stop-color:#CC532C"/>
		<stop  offset="0.7389" style="stop-color:#CC532C"/>
		<stop  offset="1" style="stop-color:#CC532C"/>
	</linearGradient>
	<path fill="url(#SVGID_6_)" d="M600.843,248.644L600.843,248.644c-0.04-0.04-0.04-0.04-0.04-0.04L600.843,248.644z"/>
	
		<linearGradient id="SVGID_7_" gradientUnits="userSpaceOnUse" x1="998.166" y1="-135.7832" x2="996.7113" y2="-134.9435" gradientTransform="matrix(0.3951 0 0 -0.3951 284.3027 195.9638)">
		<stop  offset="0" style="stop-color:#FFAC6A"/>
		<stop  offset="0" style="stop-color:#EE7B37"/>
		<stop  offset="0.0183" style="stop-color:#EC7836"/>
		<stop  offset="0.1829" style="stop-color:#DA6431"/>
		<stop  offset="0.3455" style="stop-color:#D0572D"/>
		<stop  offset="0.5025" style="stop-color:#CC532C"/>
		<stop  offset="0.7389" style="stop-color:#CC532C"/>
		<stop  offset="1" style="stop-color:#CC532C"/>
	</linearGradient>
	<path fill="url(#SVGID_7_)" d="M678.563,249.829c-0.04-0.237-0.04-0.435-0.079-0.632c-0.079,0-0.198-0.04-0.276-0.079
		C678.207,249.395,678.246,249.671,678.563,249.829z"/>
	
		<linearGradient id="SVGID_8_" gradientUnits="userSpaceOnUse" x1="999.0654" y1="-137.4814" x2="997.6108" y2="-136.6416" gradientTransform="matrix(0.3951 0 0 -0.3951 284.3027 195.9638)">
		<stop  offset="0" style="stop-color:#FFAC6A"/>
		<stop  offset="0" style="stop-color:#EE7B37"/>
		<stop  offset="0.0183" style="stop-color:#EC7836"/>
		<stop  offset="0.1829" style="stop-color:#DA6431"/>
		<stop  offset="0.3455" style="stop-color:#D0572D"/>
		<stop  offset="0.5025" style="stop-color:#CC532C"/>
		<stop  offset="0.7389" style="stop-color:#CC532C"/>
		<stop  offset="1" style="stop-color:#CC532C"/>
	</linearGradient>
	<path fill="url(#SVGID_8_)" d="M678.918,250.501c-0.04-0.198-0.079-0.435-0.079-0.632c-0.079-0.04-0.197-0.04-0.276-0.079
		C678.563,250.106,678.602,250.343,678.918,250.501z"/>
</g>
<g>
	
		<linearGradient id="SVGID_9_" gradientUnits="userSpaceOnUse" x1="301.001" y1="78.647" x2="904.8293" y2="-525.1812" gradientTransform="matrix(0.3951 0 0 -0.3951 284.3027 195.9638)">
		<stop  offset="0" style="stop-color:#000000"/>
		<stop  offset="0.1921" style="stop-color:#000000"/>
		<stop  offset="0.5616" style="stop-color:#283647"/>
		<stop  offset="0.7143" style="stop-color:#283647"/>
		<stop  offset="0.8374" style="stop-color:#2A384A"/>
		<stop  offset="1" style="stop-color:#2A384A"/>
	</linearGradient>
	<path fill="url(#SVGID_9_)" d="M656.515,386.421c-0.079-1.383-0.554-2.766-1.067-3.793c-3.99-7.823-7.98-15.606-11.972-23.431
		c-1.976-3.911-3.99-7.823-5.966-11.734c-1.305-2.568-5.334-7.705-5.334-10.55c-0.277-0.158-0.356-0.435-0.356-0.711
		c-0.276-0.158-0.355-0.435-0.355-0.712c-0.276-0.157-0.355-0.435-0.355-0.711c-0.276-0.158-0.316-0.435-0.355-0.711
		c-0.276-0.158-0.316-0.435-0.355-0.672c-0.079-0.593-5.177,5.769-5.729,6.44c-2.41,2.964-5.137,5.729-8.061,8.219
		c-12.881,10.944-29.555,15.963-46.347,14.896c-0.198,0.079-0.356,0.079-0.554-0.039c-0.79-0.475-1.699,0.079-2.845-0.237h0.04
		c-0.633-0.514-1.463,0-2.134-0.355l0.039,0.039c-6.243-2.134-12.406-3.042-18.373-6.163c-6.085-3.24-11.616-7.508-16.199-12.684
		c-6.994-7.863-12.288-17.662-14.738-28.093c-2.687-11.34-1.58-23.431-1.659-35.008c-0.198-27.026-0.593-54.091-0.158-81.117
		c0.118-7.547,0.316-15.094,0.553-22.641c0.277-7.467-0.514-14.975-2.331-22.206c-3.793-15.37-12.802-28.606-26.789-36.667
		c-7.547-4.347-16.16-6.954-24.893-7.428c-0.197-0.04-0.474-0.079-0.75-0.04c-0.158,0-0.316,0-0.475,0c-0.039,0-0.079,0-0.079,0
		c-0.118,0-0.237,0-0.316,0c0,0,0,0-0.039,0c-0.276,0-0.553-0.079-0.751,0.158c-0.118,0.04-0.197,0.119-0.315,0.198
		c0,0,0,0.04-0.04,0.04c-0.039,0-0.079,0.04-0.079,0.04c0,0.04,0,0.119,0,0.158c-0.039,0.118-0.039,0.197-0.079,0.316
		c-0.75,3.753-0.118,8.297-0.236,12.13c-0.435,16.556-0.396,33.071-0.396,49.667c0,16.99-0.355,34.02,0,51.01
		c0.079,3.635-0.158,7.23,0.118,10.866h0.04c0,21.139,0,42.238,0,63.337c0,0.315-0.079,0.593-0.119,0.869
		c0.277,0.672,0.119,1.383,0.158,2.055c1.027,14.896,2.331,28.765,7.744,42.909c11.894,31.096,38.129,56.226,69.186,68
		c0.197,0.079,0.396,0.158,0.593,0.237c8.061,3.003,16.477,5.176,24.972,6.44c4.465,0.672,8.969,1.066,13.473,1.225
		c2.253,0.079,4.505,0.079,6.757,0.04c1.146-0.04,3.872-0.751,4.939-0.356c0.079-0.039,0.118-0.078,0.157-0.118
		c0.04,0,0.119,0,0.158,0c11.222-0.316,23.865-3.99,34.454-7.941c7.626-2.846,14.659-6.915,21.416-11.38
		c3.397-2.252,6.677-4.583,9.996-6.914C653.393,391.32,656.791,390.215,656.515,386.421z M457.099,234.854v0.039
		C457.099,234.894,457.06,234.854,457.099,234.854c-0.039-0.04-0.039-0.04-0.039-0.079c0.039,0,0.118-0.04,0.158-0.04
		C457.178,234.775,457.139,234.815,457.099,234.854z M605.149,356.273C605.149,356.234,605.149,356.234,605.149,356.273
		C605.149,356.234,605.149,356.234,605.149,356.273C605.149,356.234,605.149,356.273,605.149,356.273z M607.599,354.891
		C607.599,354.852,607.599,354.852,607.599,354.891h0.04C607.599,354.852,607.599,354.852,607.599,354.891z M609.298,353.824
		c0,0.039-0.039,0.079-0.079,0.118C609.259,353.903,609.259,353.863,609.298,353.824L609.298,353.824
		C609.298,353.824,609.298,353.784,609.298,353.824L609.298,353.824C609.298,353.784,609.298,353.784,609.298,353.824
		c0.079-0.04,0.158-0.04,0.237-0.079C609.456,353.784,609.377,353.824,609.298,353.824z M610.918,371.525L610.918,371.525
		c0-0.039,0.039-0.039,0.079-0.039C610.957,371.486,610.957,371.525,610.918,371.525z M636.166,366.705c0,0.039,0,0.039,0,0.079
		l-0.039-0.04l0,0L636.166,366.705L636.166,366.705z"/>
	
		<linearGradient id="SVGID_10_" gradientUnits="userSpaceOnUse" x1="806.5674" y1="-408.208" x2="806.5825" y2="-408.2231" gradientTransform="matrix(0.3951 0 0 -0.3951 284.3027 195.9638)">
		<stop  offset="0" style="stop-color:#000000"/>
		<stop  offset="0.1921" style="stop-color:#000000"/>
		<stop  offset="0.5616" style="stop-color:#283647"/>
		<stop  offset="0.7143" style="stop-color:#283647"/>
		<stop  offset="0.8374" style="stop-color:#2A384A"/>
		<stop  offset="1" style="stop-color:#2A384A"/>
	</linearGradient>
	<path fill="url(#SVGID_10_)" d="M602.977,357.262L602.977,357.262C603.016,357.262,603.016,357.223,602.977,357.262
		L602.977,357.262z"/>
</g>
<path fill="#282425" d="M527.588,342.998C527.588,342.998,527.588,343.037,527.588,342.998c0,0.039,0.039,0.039,0.039,0.039
	L527.588,342.998z"/>
<path fill="#282425" d="M529.998,345.764C529.998,345.764,529.998,345.804,529.998,345.764
	C530.037,345.804,530.037,345.804,529.998,345.764L529.998,345.764z"/>
<g>
	
		<linearGradient id="SVGID_11_" gradientUnits="userSpaceOnUse" x1="60.2012" y1="-401.4609" x2="60.2512" y2="-401.5109" gradientTransform="matrix(0.3951 0 0 -0.3951 284.3027 195.9638)">
		<stop  offset="0" style="stop-color:#000000"/>
		<stop  offset="0.1921" style="stop-color:#000000"/>
		<stop  offset="0.5616" style="stop-color:#283647"/>
		<stop  offset="0.7143" style="stop-color:#283647"/>
		<stop  offset="0.8374" style="stop-color:#2A384A"/>
		<stop  offset="1" style="stop-color:#2A384A"/>
	</linearGradient>
	<path fill="url(#SVGID_11_)" d="M308.1,354.614C308.1,354.614,308.1,354.575,308.1,354.614
		C308.1,354.575,308.1,354.575,308.1,354.614L308.1,354.614z"/>
	
		<linearGradient id="SVGID_12_" gradientUnits="userSpaceOnUse" x1="223.9717" y1="-560.4702" x2="224.4399" y2="-560.9384" gradientTransform="matrix(0.3951 0 0 -0.3951 284.3027 195.9638)">
		<stop  offset="0" style="stop-color:#000000"/>
		<stop  offset="0.1921" style="stop-color:#000000"/>
		<stop  offset="0.5616" style="stop-color:#283647"/>
		<stop  offset="0.7143" style="stop-color:#283647"/>
		<stop  offset="0.8374" style="stop-color:#2A384A"/>
		<stop  offset="1" style="stop-color:#2A384A"/>
	</linearGradient>
	<path fill="url(#SVGID_12_)" d="M372.939,417.518c0-0.04-0.04-0.04-0.079-0.04s-0.079,0-0.119-0.039
		c0.04,0.039,0.079,0.079,0.119,0.118c0.04,0,0.119,0,0.158,0c-0.039,0-0.079,0-0.118-0.039H372.939L372.939,417.518z"/>
	
		<linearGradient id="SVGID_13_" gradientUnits="userSpaceOnUse" x1="251.4082" y1="-244.3057" x2="251.4926" y2="-244.3901" gradientTransform="matrix(0.3951 0 0 -0.3951 284.3027 195.9638)">
		<stop  offset="0" style="stop-color:#000000"/>
		<stop  offset="0.1921" style="stop-color:#000000"/>
		<stop  offset="0.5616" style="stop-color:#283647"/>
		<stop  offset="0.7143" style="stop-color:#283647"/>
		<stop  offset="0.8374" style="stop-color:#2A384A"/>
		<stop  offset="1" style="stop-color:#2A384A"/>
	</linearGradient>
	<path fill="url(#SVGID_13_)" d="M383.646,292.463l-0.039,0.039h0.039C383.646,292.541,383.646,292.502,383.646,292.463z"/>
	
		<linearGradient id="SVGID_14_" gradientUnits="userSpaceOnUse" x1="238.2881" y1="-563.1865" x2="238.8167" y2="-563.7151" gradientTransform="matrix(0.3951 0 0 -0.3951 284.3027 195.9638)">
		<stop  offset="0" style="stop-color:#000000"/>
		<stop  offset="0.1921" style="stop-color:#000000"/>
		<stop  offset="0.5616" style="stop-color:#283647"/>
		<stop  offset="0.7143" style="stop-color:#283647"/>
		<stop  offset="0.8374" style="stop-color:#2A384A"/>
		<stop  offset="1" style="stop-color:#2A384A"/>
	</linearGradient>
	<path fill="url(#SVGID_14_)" d="M378.51,418.584c-0.039,0-0.079-0.04-0.118-0.04c0,0.04,0.039,0.04,0.039,0.079
		c0.119,0,0.198,0,0.316,0C378.668,418.623,378.55,418.584,378.51,418.584L378.51,418.584z"/>
	
		<linearGradient id="SVGID_15_" gradientUnits="userSpaceOnUse" x1="-155.0244" y1="16.5439" x2="525.3557" y2="-663.8363" gradientTransform="matrix(0.3951 0 0 -0.3951 284.3027 195.9638)">
		<stop  offset="0" style="stop-color:#000000"/>
		<stop  offset="0.1921" style="stop-color:#000000"/>
		<stop  offset="0.5616" style="stop-color:#283647"/>
		<stop  offset="0.7143" style="stop-color:#283647"/>
		<stop  offset="0.8374" style="stop-color:#2A384A"/>
		<stop  offset="1" style="stop-color:#2A384A"/>
	</linearGradient>
	<path fill="url(#SVGID_15_)" d="M529.129,419.532c-0.119-0.197-0.316-0.355-0.514-0.475c-0.79-0.435-2.134-0.355-2.845-0.592
		c-3.912-1.226-7.823-3.754-11.419-5.729c-16.121-8.93-32.321-20.23-42.713-35.719c-1.027-1.541-2.015-3.121-2.963-4.741
		c-1.738-3.003-3.319-6.046-4.899-9.088c-1.62-3.161-1.541-5.809-4.979-7.389c-3.991-1.857-8.97-1.265-13.197-0.948
		c-8.376,0.632-17.267,0.355-25.841-0.158c-7.389-0.435-16.595,0.079-22.995-4.307c-11.261-7.744-12.604-23.51-12.724-36.232
		c-0.276-23.313-1.659-44.727-11.932-66.063c-9.087-18.887-22.956-35.481-39.986-47.73c-1.857-1.343-3.753-2.647-5.689-3.872
		c-18.887-12.051-40.658-18.966-63.18-17.741c-2.212,0.119-4.425,0.316-6.638,0.593c-9.997,1.225-20.19,3.991-29.041,8.851
		l0.039-0.04c-0.276,0.079-0.553,0.04-0.711,0.316c-1.343,0.396-2.608,1.106-3.833,1.778l0.04-0.04
		c-0.277,0.079-0.553,0.04-0.711,0.316c-0.355,0.158-0.75,0.356-1.027,0.672c-0.197,0.079-0.316,0.197-0.395,0.395l0.04-0.04
		c-0.316,0.514-1.106,0.948-0.277,1.66l0.119-0.04l0.079,0.079c0.435,0.355,1.027,0.04,1.501,0.316l0.119-0.04l0.119,0.079
		c0.395,0.355,0.988,0,1.422,0.316h-0.04c0.79,0.791,4.188,1.027,5.255,1.225c2.687,0.553,5.374,1.146,8.061,1.778
		c9.404,2.252,18.57,4.939,27.303,9.088c5.018,2.371,8.851,5.492,12.802,9.443c6.124,6.124,10.392,13.513,14.066,21.297
		c1.818,3.793,3.358,7.744,4.702,11.735c1.225,3.872,2.252,7.744,3.24,11.656c0.632,2.41,1.186,4.821,1.699,7.231
		c1.027,4.821,1.896,9.719,2.529,14.62c2.805,21.415-0.119,43.146,3.042,64.482c1.976,13.079,5.69,26.315,12.802,37.536
		c11.854,18.61,29.515,27.856,49.113,32.479l0,0h0.04c0.435,0.118,0.869,0.197,1.304,0.315c0,0.04,0.04,0.04,0.04,0.079
		c0.079,0,0.119,0,0.198,0l0,0c0.395,0.079,0.75,0.158,1.146,0.237c0.04,0.039,0.079,0.079,0.079,0.118c0.04,0,0.079,0,0.158,0
		c-0.04,0-0.079-0.039-0.119-0.079h0.04c0,0,0,0-0.04-0.039c21.178,4.465,44.372,3.872,64.917,4.03
		c21.89,0.158,43.819-0.396,65.709-0.475c8.06,0.712,16.199,0.791,24.26,1.186C527.588,421.942,530.195,421.35,529.129,419.532z
		 M308.456,341.853c0.237-0.04,0.435,0,0.553,0.157C308.811,341.931,308.614,341.853,308.456,341.853z M360.453,413.764
		C360.453,413.764,360.453,413.724,360.453,413.764C360.453,413.724,360.493,413.764,360.453,413.764
		C360.493,413.764,360.453,413.764,360.453,413.764z M361.362,414.119c-0.04-0.118-0.119-0.197-0.198-0.276
		c0.079,0.039,0.158,0.079,0.237,0.197c0.04,0.04,0.079,0.04,0.158,0.04C361.48,414.119,361.441,414.119,361.362,414.119z
		 M362.389,414.436c-0.04-0.119-0.119-0.198-0.198-0.277c0.079,0.04,0.198,0.079,0.237,0.198c0.04,0.039,0.079,0.039,0.119,0.039
		C362.508,414.436,362.468,414.436,362.389,414.436z M363.456,414.83c-0.04-0.158-0.119-0.237-0.198-0.316
		c0.079,0.04,0.158,0.079,0.237,0.198c0.118,0.039,0.197,0.079,0.316,0.079C363.653,414.83,363.574,414.83,363.456,414.83z
		 M385.385,419.256c0.355,0,0.751,0.039,1.106,0.079C386.136,419.335,385.74,419.335,385.385,419.256z M444.731,420.56
		C444.731,420.56,444.692,420.56,444.731,420.56c0-0.04,0-0.118,0-0.197C444.731,420.441,444.731,420.52,444.731,420.56
		L444.731,420.56z"/>
	
		<linearGradient id="SVGID_16_" gradientUnits="userSpaceOnUse" x1="197.7349" y1="-552.7349" x2="197.8335" y2="-552.8334" gradientTransform="matrix(0.3951 0 0 -0.3951 284.3027 195.9638)">
		<stop  offset="0" style="stop-color:#000000"/>
		<stop  offset="0.1921" style="stop-color:#000000"/>
		<stop  offset="0.5616" style="stop-color:#283647"/>
		<stop  offset="0.7143" style="stop-color:#283647"/>
		<stop  offset="0.8374" style="stop-color:#2A384A"/>
		<stop  offset="1" style="stop-color:#2A384A"/>
	</linearGradient>
	<path fill="url(#SVGID_16_)" d="M362.468,414.396L362.468,414.396c-0.04-0.039-0.04-0.039-0.04-0.039L362.468,414.396z"/>
	
		<linearGradient id="SVGID_17_" gradientUnits="userSpaceOnUse" x1="195.1353" y1="-551.9341" x2="195.2339" y2="-552.0327" gradientTransform="matrix(0.3951 0 0 -0.3951 284.3027 195.9638)">
		<stop  offset="0" style="stop-color:#000000"/>
		<stop  offset="0.1921" style="stop-color:#000000"/>
		<stop  offset="0.5616" style="stop-color:#283647"/>
		<stop  offset="0.7143" style="stop-color:#283647"/>
		<stop  offset="0.8374" style="stop-color:#2A384A"/>
		<stop  offset="1" style="stop-color:#2A384A"/>
	</linearGradient>
	<path fill="url(#SVGID_17_)" d="M361.441,414.08L361.441,414.08C361.401,414.04,361.401,414.04,361.441,414.08L361.441,414.08z"/>
	
		<linearGradient id="SVGID_18_" gradientUnits="userSpaceOnUse" x1="200.3359" y1="-553.6338" x2="200.4359" y2="-553.7338" gradientTransform="matrix(0.3951 0 0 -0.3951 284.3027 195.9638)">
		<stop  offset="0" style="stop-color:#000000"/>
		<stop  offset="0.1921" style="stop-color:#000000"/>
		<stop  offset="0.5616" style="stop-color:#283647"/>
		<stop  offset="0.7143" style="stop-color:#283647"/>
		<stop  offset="0.8374" style="stop-color:#2A384A"/>
		<stop  offset="1" style="stop-color:#2A384A"/>
	</linearGradient>
	<path fill="url(#SVGID_18_)" d="M363.496,414.751L363.496,414.751c-0.04-0.039-0.04-0.039-0.04-0.039L363.496,414.751z"/>
</g>
</svg>
